<svg xmlns="http://www.w3.org/2000/svg" viewBox="0 0 60.24 27.88"><defs><style>.cls-1{fill:#231f20;}</style></defs><g id="Layer_2" data-name="Layer 2"><g id="Layer_1-2" data-name="Layer 1"><path class="cls-1" d="M59.71,5.35A6.84,6.84,0,0,0,51.17.75,11.51,11.51,0,0,0,46.4,4c.08-.72.14-1.44.26-2.15.09-.55,0-.8-.65-.73a29.74,29.74,0,0,1-7.27.3l-.45-.08a.94.94,0,0,0,0-.16A.43.43,0,0,0,37.8.63,26.69,26.69,0,0,1,27.64,0c-.44-.1-.59.15-.68.56-.35,1.44-.65,2.9-.91,4.36-.28-2.43-1.91-3.83-4.58-3.86a10.26,10.26,0,0,0-6.63,2.49c-.52.41-1,.87-1.6,1.4l-.05,0V5c.17-1,.3-1.88.48-2.75s-.11-.83-1.66-.61a25.7,25.7,0,0,1-5.88.13c-2.35-.23-3-.53-3,.41,0,.57-.19,1.13-.28,1.69C2,8.72.4,19,0,21.69a.57.57,0,0,0,.56.65c3,0,6.09,0,9.13,0,.63,0,.76-.23.82-.92a31,31,0,0,1,.61-3.82c.47-2.19.61-4.47,1.53-6.55.41-.94,1-1.34,1.62-1.07.77.36.53,1.06.43,1.65-.54,3.34-1.09,6.68-1.67,10-.1.58.07.7.64.7,2.78,0,5.55,0,8.32,0a3.63,3.63,0,0,0,2.37,5.21,9.84,9.84,0,0,0,1.72.26,8.82,8.82,0,0,0,4.56-.61,4.23,4.23,0,0,0,2.45-4.29c-.18-1.64-1.22-2.68-3.18-3.09a10.5,10.5,0,0,0-4.14-.08,6.37,6.37,0,0,0-1.93.7c.29-1.84.79-4.91,1.08-6.74a.1.1,0,0,1,.19,0c0,1.24-.1,2.94-.1,4,0,.5,0,.83,1.11.68a13.75,13.75,0,0,1,5.38.31c.73.19.95.09,1.14-.32.46-1,.89-2,1.31-3l1.45-9.08a.11.11,0,0,1,.22,0L35.26,12c-.75,6.32-1.55,13-1.77,14.83a.36.36,0,0,0,.42.4l9.75-1.36a.58.58,0,0,0,.5-.53c.11-1.17.21-2.73,1-2.48a10.45,10.45,0,0,0,4.88,0C57.71,21.05,61.77,12.11,59.71,5.35Zm-11.09,9a1.85,1.85,0,0,1-1.84.92c-1.12-.12-1.37-.44-1.21-1.55a20.14,20.14,0,0,1,.51-2.77A4.91,4.91,0,0,1,47,9a1.24,1.24,0,0,1,2.23.38,4.73,4.73,0,0,1,.25,1.47A6.08,6.08,0,0,1,48.62,14.33Z"/></g></g></svg>